<?xml version="1.0" encoding="utf-8"?>
<!-- Generator: Adobe Illustrator 23.0.1, SVG Export Plug-In . SVG Version: 6.00 Build 0)  -->
<svg version="1.1" id="Camada_1" xmlns="http://www.w3.org/2000/svg" xmlns:xlink="http://www.w3.org/1999/xlink" x="0px" y="0px"
	 viewBox="0 0 100 16.3" style="enable-background:new 0 0 100 16.3;" xml:space="preserve">
<style type="text/css">
	.st0{fill:#7E8689;}
	.st1{fill:#A11918;}
	.st2{fill:#7E8789;}
	.st3{fill:#792421;}
	.st4{fill:#FFFFFF;}
</style>
<path class="st0" d="M21.4,3.1c1.9,0,3.7,0,5.6,0c2.9,0.1,5.1,2.1,5.5,4.9c0.5,3.2-1.8,6-4.8,6.5c-0.3,0.1-0.7,0.1-1,0.1
	c-1.8,0-3.5,0-5.3,0C21.4,10.7,21.4,6.9,21.4,3.1z"/>
<path class="st0" d="M53.6,3c1.9,0,3.8-0.1,5.7,0c3.3,0.1,5.8,3,5.4,6.3c-0.3,2.8-2.8,5.1-5.6,5.1c-1.9,0-3.7,0-5.6,0
	C53.6,10.6,53.6,6.8,53.6,3z"/>
<path class="st1" d="M14.9,7.9c0,0.6,0,1.2,0,1.8c0,0.1,0,0.2-0.2,0.2c-0.2,0-0.4,0-0.6,0c-3.9,0-7.8,0-11.8,0c-0.5,0-1,0-1.5,0
	C0.3,9.8,0,9.5,0,9c0-2.3,0-4.6,0-6.8c0-0.4,0.3-0.7,0.7-0.8c0.1,0,0.2,0,0.2,0c4.5,0,9,0,13.6,0c0.3,0,0.4,0.1,0.3,0.3
	c0,0.5,0,1,0,1.5c-0.2,0.1-0.5,0-0.7,0c-3.8,0.1-7.7,0-11.5,0.1c-0.1,0-0.3,0-0.4,0.1C2.1,3.5,2.2,3.7,2.2,3.8c0,1.2,0,2.3,0,3.5
	c0,0.5,0,0.5,0.5,0.5c3.1,0,6.1,0,9.2,0C12.8,7.8,13.9,7.8,14.9,7.9z"/>
<path class="st0" d="M14.9,7.9c-4.2,0-8.3,0-12.5,0C2.1,7.9,2,7.8,2,7.6c0-1.4,0-2.8,0-4.3c0.1-0.1,0.2,0,0.3,0c3.3,0,6.6,0,9.9,0
	c0.1,0,0.2,0,0.3,0c0,1.4,0,2.8,0,4.3c0,0.2,0.1,0.3,0.3,0.3c0.6,0,1.2,0,1.8,0C14.7,7.8,14.8,7.8,14.9,7.9z"/>
<path class="st1" d="M19.6,14.6c0,0.6,0,1.2,0,1.7c-0.2,0-0.5,0-0.7,0c-5.5,0-11,0-16.5,0c-0.5,0-1,0-1.5,0c-0.4,0-0.6-0.2-0.6-0.6
	c0-0.9,0.1-1.1,1.1-1.1c6,0,11.9,0,17.9,0C19.3,14.5,19.5,14.5,19.6,14.6z"/>
<path class="st2" d="M39.3,10.3c0.9-1.9,1.9-3.8,2.8-5.8c1,2,1.9,3.9,2.8,5.8C43.1,10.2,41.2,10.2,39.3,10.3z"/>
<path class="st3" d="M12.5,3.3c-3.5,0-7,0-10.5,0c0.1-0.1,0.3-0.1,0.4-0.1c4.1,0,8.3,0,12.4,0c-0.1,0.1-0.2,0.1-0.3,0.1
	C13.9,3.3,13.2,3.3,12.5,3.3z"/>
<path class="st4" d="M98.3,9c-0.9-0.6-1.9-0.8-2.9-0.8c-1.7,0-3.3,0-5,0c-0.5,0-0.9,0-1.4-0.1c-0.9-0.2-1.6-1-1.7-1.8
	c-0.1-1,0.4-1.8,1.3-2.3c0.5-0.2,1-0.3,1.5-0.3c2.5,0,4.9,0,7.4,0c0.2,0,0.3,0,0.4,0.1c0.5,0.4,1.2,0.4,1.7-0.1
	c0.4-0.5,0.5-1.2,0.1-1.7c-0.4-0.5-1.1-0.6-1.7-0.3c-0.2,0.1-0.3,0.1-0.5,0.1c-2.8,0-5.6,0-8.4,0c-0.4,0-0.8,0.1-1.1,0.2
	c-1.8,0.8-2.7,2.2-2.6,4.2c0.1,1.9,1.5,3.4,3.4,3.7c1.1,0.1,2.1,0.1,3.2,0.1c1.3,0,2.6,0,3.9,0c1.3,0,2,0.7,2.1,2
	c0.1,1.1-0.4,2-1.7,2.3c-0.5,0.1-1,0.1-1.5,0.1c-4.5,0-9.1,0-13.6,0c-0.1,0-0.2,0-0.2,0c0,0,0,0,0,0c0.1-0.1,0.1-0.1,0.2-0.2
	c1.7-1.8,2.5-3.9,2.2-6.3c-0.5-3.7-3.7-6.5-7.4-6.5c-7.9,0-15.8,0-23.7,0c-0.1,0-0.2,0-0.2,0c-0.2,0-0.3,0-0.2,0.2
	c0,0.4,0,0.9,0,1.3C51.8,3,51.9,3,52,3c0.5,0,1,0,1.5,0c0.1,0.1,0.3,0.1,0.5,0.1c1.6,0,3.2,0,4.8,0c0.9,0,1.7,0.1,2.5,0.5
	c2.2,1,3.6,3.3,3.3,5.9c-0.4,2.9-2.7,4.9-5.7,4.9c-1.6,0-3.3,0-4.9,0c-0.2,0-0.3,0-0.5,0.1c-1.4,0-2.7,0-4.1,0
	c-0.2,0-0.2-0.1-0.3-0.2c-0.3-0.6-0.6-1.1-0.8-1.7c-1.7-3.5-3.5-6.9-5.2-10.4c-0.3-0.6-0.6-0.8-1.2-0.8c-7.3,0-14.6,0-21.9,0
	c-0.1,0-0.2,0-0.2,0c-0.2,0-0.2,0.1-0.2,0.2c0,0.4,0,0.9,0,1.3c0,0.2,0.1,0.2,0.3,0.2c0.5,0,1,0,1.5,0c0.1,0.1,0.3,0.1,0.5,0.1
	c1.6,0,3.2,0,4.9,0c0.4,0,0.8,0,1.2,0.1c2.9,0.5,5,3.2,4.5,6.4c-0.4,2.8-2.8,4.8-5.6,4.8c-1.7,0-3.3,0-5,0c-0.2,0-0.4,0-0.5,0.1
	c-0.6,0-1.2,0-1.8,0c-0.1,0.1-0.1,0.2-0.1,0.3c0,0.4,0,0.8,0,1.2c0,0.1,0,0.2,0.1,0.3c0.1,0,0.2,0,0.4,0c2.3,0,4.6,0,6.9,0
	c1.5,0,3-0.4,4.2-1.3c3.7-2.6,4.3-7.8,1.3-11.2c-0.2-0.2-0.4-0.4-0.7-0.7c3,0,6,0,9,0c-2.2,4.4-4.4,8.7-6.7,13.1c0.7,0,1.3,0,1.9,0
	c0.3,0,0.5-0.1,0.7-0.4c0.9-1.9,1.8-3.7,2.7-5.6c0.1-0.1,0.2-0.1,0.2-0.2c0.5-1.1,1-2.1,1.5-3.2c0.3-0.7,0.7-1.4,1.1-2.2
	c0.1,0.1,0.2,0.2,0.2,0.3c0.8,1.6,1.6,3.3,2.4,4.9c0.1,0.1,0.1,0.3,0.3,0.4c0,0.1,0.1,0.2,0.1,0.2c0.9,1.8,1.8,3.6,2.6,5.5
	c0.1,0.2,0.2,0.3,0.5,0.3c3.6,0,7.2,0,10.8,0c1.6,0,3-0.4,4.2-1.3c3.7-2.6,4.3-7.7,1.3-11.1c-0.2-0.3-0.5-0.5-0.7-0.7
	c2.4,0,4.7,0,7.1,0C71,3.1,71,3.2,70.9,3.2c-1.9,1.8-2.7,4-2.4,6.7c0.5,3.7,3.7,6.5,7.4,6.5c6.5,0,13,0,19.4,0
	c0.7,0,1.3-0.1,1.9-0.3c1.5-0.5,2.4-1.5,2.7-3.1C100.2,11.3,99.7,9.9,98.3,9z M75.8,14.6c-3.1-0.1-5.7-2.7-5.6-5.9
	c0.1-3.2,2.8-5.8,6-5.6C79.5,3.2,81.8,6,81.7,9C81.6,12.3,78.8,14.7,75.8,14.6z"/>
</svg>
