<?xml version="1.0" encoding="utf-8"?>
<!-- Generator: Adobe Illustrator 25.3.0, SVG Export Plug-In . SVG Version: 6.00 Build 0)  -->
<svg version="1.1" id="Layer_1" xmlns="http://www.w3.org/2000/svg" xmlns:xlink="http://www.w3.org/1999/xlink" x="0px" y="0px"
	 viewBox="0 0 24 24" style="enable-background:new 0 0 24 24;" xml:space="preserve">
<path d="M12.7,23.3c-0.4,0-0.9,0-1.3,0c-0.1,0-0.1,0-0.2,0c-1.6-0.1-3-0.5-4.4-1.3c-3.6-2-5.6-5.2-5.9-9.3c-0.1-1.8,0.2-3.5,1-5.1
	c2-3.9,5.2-6.1,9.6-6.4c2-0.1,3.9,0.3,5.7,1.3c3.1,1.7,5,4.3,5.7,7.9c0.1,0.4,0.1,0.9,0.2,1.3c0,0.4,0,0.9,0,1.3c0,0.1,0,0.1,0,0.2
	c-0.1,1.6-0.5,3-1.3,4.4c-1.7,3.1-4.4,5-7.9,5.7C13.5,23.2,13.1,23.2,12.7,23.3z M12,20.4c2,0,3.7-0.6,5.2-1.9
	c0.4-0.4,0.7-0.8,0.6-1.4c-0.1-2-1.7-3.6-3.8-3.6c-1.4,0-2.8,0-4.1,0c-2,0-3.5,1.4-3.8,3.3c-0.1,0.6,0.1,1.2,0.6,1.6
	C8.3,19.7,10,20.3,12,20.4z M8.4,8.1c0,2,1.7,3.7,3.7,3.7c2,0,3.7-1.7,3.7-3.7c0-2-1.7-3.7-3.7-3.6C10,4.4,8.3,6.1,8.4,8.1z"/>
</svg>
